<svg xmlns="http://www.w3.org/2000/svg" viewBox="0 0 29.615 28">
  <defs>
    <style>
      .cls-1 {
        fill: #a593e0;
      }

      .cls-2 {
        fill: #566270;
      }
    </style>
  </defs>
  <g id="Group_82" data-name="Group 82" transform="translate(-303.41 -769.5)">
    <path id="icon_collection" class="cls-1" d="M31.211,37.886a.08.08,0,0,0,.1,0,.085.085,0,0,0,.038-.1l-1.193-5.345a1.971,1.971,0,0,1,.621-1.909l4.1-3.622a.086.086,0,0,0,.029-.1.084.084,0,0,0-.082-.065l-2.609-.248a.938.938,0,0,1,.18-1.868l2.606.248a1.971,1.971,0,0,1,1.117,3.443l-4.1,3.624a.094.094,0,0,0-.029.093l1.191,5.344A1.973,1.973,0,0,1,30.256,39.5" transform="translate(296.226 755.418)"/>
    <path id="icon_collection-2" data-name="icon_collection" class="cls-2" d="M21.329,46.08a2.557,2.557,0,0,1-2.48-3.106l1.539-6.9a.128.128,0,0,0-.043-.118l-5.3-4.676a2.545,2.545,0,0,1,1.444-4.442l7.033-.668a.119.119,0,0,0,.1-.075l2.809-6.483a2.512,2.512,0,0,1,2.336-1.533h0a2.511,2.511,0,0,1,2.335,1.534L33.92,26.1a1.211,1.211,0,0,1-2.223.963l-2.81-6.483a.106.106,0,0,0-.114-.073.1.1,0,0,0-.111.074l-2.81,6.482a2.551,2.551,0,0,1-2.1,1.523l-7.034.668a.108.108,0,0,0-.106.084.106.106,0,0,0,.038.13l5.3,4.677a2.552,2.552,0,0,1,.8,2.461l-1.54,6.9a.11.11,0,0,0,.05.126.1.1,0,0,0,.135.006l6.084-3.593a2.552,2.552,0,0,1,2.59,0l6.084,3.593a.1.1,0,0,0,.135-.006.11.11,0,0,0,.05-.126l-1.539-6.9a2.543,2.543,0,0,1,.8-2.463l5.3-4.674a.111.111,0,0,0,.038-.132.109.109,0,0,0-.106-.084l-3.366-.32a1.211,1.211,0,0,1,.232-2.41l3.362.319A2.544,2.544,0,0,1,42.5,31.283l-5.3,4.676a.122.122,0,0,0-.038.121L38.7,42.974A2.546,2.546,0,0,1,34.92,45.72l-6.084-3.594a.125.125,0,0,0-.125,0l-6.084,3.594a2.558,2.558,0,0,1-1.3.359" transform="translate(289.226 751.418)"/>
    <path id="icon_collection-3" data-name="icon_collection" class="cls-1" d="M21.329,46.08a2.557,2.557,0,0,1-2.48-3.106l1.539-6.9a.128.128,0,0,0-.043-.118l-5.3-4.676a2.545,2.545,0,0,1,1.444-4.442c7.081-.673,8.185,1.655.228,2.411a.108.108,0,0,0-.106.084.106.106,0,0,0,.038.13l5.3,4.677a2.552,2.552,0,0,1,.8,2.461l-1.54,6.9a.11.11,0,0,0,.05.126.1.1,0,0,0,.135.006c6.885-4.064.378,2.446-.066,2.446" transform="translate(291.226 751.418)"/>
  </g>
</svg>
