<svg xmlns="http://www.w3.org/2000/svg" viewBox="0 0 28.017 28.633">
  <defs>
    <style>
      .cls-1 {
        fill: #a593e0;
      }

      .cls-2 {
        fill: #566270;
      }
    </style>
  </defs>
  <g id="Group_81" data-name="Group 81" transform="translate(-96.983 -770.367)">
    <path id="icon_wrong" class="cls-1" d="M76.071,86.035a1.107,1.107,0,0,1-.783-1.89l8.859-8.859a1.107,1.107,0,0,1,1.566,1.566l-8.859,8.859a1.108,1.108,0,0,1-.783.324m8.859,0a1.108,1.108,0,0,1-.783-.324l-8.859-8.859a1.107,1.107,0,1,1,1.566-1.566l8.859,8.859a1.107,1.107,0,0,1-.783,1.89" transform="translate(31.823 705.825)"/>
    <path id="icon_wrong-2" data-name="icon_wrong" class="cls-2" d="M76.13,86.628a1.167,1.167,0,0,1-.825-1.991L84.639,75.3a1.167,1.167,0,1,1,1.65,1.65l-9.333,9.333a1.167,1.167,0,0,1-.825.342m9.333,0a1.167,1.167,0,0,1-.825-.342l-9.333-9.333a1.167,1.167,0,0,1,1.65-1.65l9.333,9.333a1.167,1.167,0,0,1-.825,1.991m-4.682,8.167a14,14,0,1,1,10.8-22.927,1.166,1.166,0,1,1-1.8,1.488,11.671,11.671,0,1,0,2.6,8.777,11.875,11.875,0,0,0-.117-3.46,11.516,11.516,0,0,0-.319-1.306,1.167,1.167,0,1,1,2.231-.684,13.569,13.569,0,0,1,.382,1.566,14.15,14.15,0,0,1,.144,4.14A13.954,13.954,0,0,1,83.16,94.6a14.817,14.817,0,0,1-2.379.194" transform="translate(30.203 704.206)"/>
    <path id="icon_wrong-3" data-name="icon_wrong" class="cls-1" d="M79.432,92.094A12.65,12.65,0,0,1,77.778,66.9c4.354-.564,3.908,1.626.268,2.09a10.546,10.546,0,1,0,3.193,20.845c4.522-.741,5.865,1.175.342,2.081a13.387,13.387,0,0,1-2.149.175" transform="translate(30.186 703.556)"/>
  </g>
</svg>
